<svg xmlns="http://www.w3.org/2000/svg" width="1280" height="720" viewBox="0 0 1280 720"><defs><linearGradient id="g" y2="1"><stop stop-color="#4f6655"/><stop offset=".58" stop-color="#c59c61"/><stop offset="1" stop-color="#1d3d2c"/></linearGradient></defs><rect width="1280" height="720" fill="url(#g)"/><path d="M0 360L150 190 290 325 430 145 580 325 730 170 880 320 1030 145 1190 300 1280 215V455H0Z" fill="#385b5a" opacity=".9"/><path d="M0 440Q180 360 350 420T700 410T1040 400T1280 380V720H0Z" fill="#1d3d2c"/><path d="M0 555Q210 500 420 550T820 535T1280 505V720H0Z" fill="#102f26" opacity=".82"/><g fill="#193c2c"><path d="M80 500L112 180L145 500Z"/><path d="M220 490L250 215L280 490Z"/><path d="M1080 490L1112 165L1144 490Z"/><path d="M1190 500L1218 230L1246 500Z"/></g><g fill="#8a633f"><rect x="850" y="350" width="250" height="115"/><path d="M820 350l155-125 155 125z"/></g><rect x="14" y="14" width="1252" height="692" rx="28" fill="none" stroke="#d6ad4f" stroke-width="7"/></svg>