<svg xmlns="http://www.w3.org/2000/svg" width="1280" height="720"><defs><linearGradient id="s" y2="1"><stop stop-color="#77b8d2"/><stop offset=".6" stop-color="#e5c981"/><stop offset="1" stop-color="#406d51"/></linearGradient></defs><rect width="1280" height="720" fill="url(#s)"/><path d="M0 335L150 185 280 310 430 150 580 315 730 180 880 320 1040 145 1190 300 1280 220V440H0Z" fill="#4d686c"/><path d="M0 410Q180 350 360 405T700 400T1030 390T1280 370V720H0Z" fill="#557446"/><path d="M0 520Q180 470 360 515T700 505T1030 500T1280 475V720H0Z" fill="#246d78"/><path d="M0 575Q220 535 430 580T820 570T1280 545" fill="none" stroke="#9bd9d0" stroke-width="9" opacity=".65"/><path d="M520 720Q555 620 635 555Q710 495 810 460Q720 540 680 620Q665 660 660 720Z" fill="#d0a164"/><g fill="#214a34"><circle cx="120" cy="430" r="75"/><circle cx="1150" cy="420" r="85"/></g><rect x="14" y="14" width="1252" height="692" rx="28" fill="none" stroke="#d6ad4f" stroke-width="7"/></svg>