<svg xmlns="http://www.w3.org/2000/svg" width="1080" height="1920" viewBox="0 0 1080 1920"><defs><linearGradient id="sky" x2="0" y2="1"><stop stop-color="#071d18"/><stop offset=".45" stop-color="#164b3c"/><stop offset="1" stop-color="#071a16"/></linearGradient><radialGradient id="glow"><stop stop color="#e4c568" stop-opacity=".5"/><stop offset="1" stop color="#e4c568" stop-opacity="0"/></radialGradient></defs><rect width="1080" height="1920" fill="url(#sky)"/><circle cx="720" cy="420" r="430" fill="url(#glow)"/><path d="M0 820 Q160 650 330 800 T690 760 T1080 810 V1920 H0Z" fill="#0b2b23"/><path d="M0 1060 Q180 900 350 1040 T720 1010 T1080 1060 V1920 H0Z" fill="#061d18"/><g fill="#123b2f" stroke="#d6ad4f" stroke-opacity=".18" stroke-width="4"><path d="M95 0 Q210 250 165 530 Q135 690 205 820 Q100 730 65 530 Q30 270 95 0Z"/><path d="M985 0 Q870 250 915 530 Q945 690 875 820 Q980 730 1015 530 Q1050 270 985 0Z"/></g><g fill="#d6ad4f" opacity=".65"><circle cx="150" cy="330" r="6"/><circle cx="900" cy="260" r="5"/><circle cx="830" cy="620" r="4"/><circle cx="240" cy="690" r="4"/></g><g transform="translate(540 1110)"><ellipse cx="0" cy="310" rx="300" ry="42" fill="#020b08" opacity=".45"/><path d="M-205 120 Q-270 40 -220 -45 Q-190 -130 -110 -150 Q-35 -210 35 -155 Q125 -170 190 -90 Q250 -10 190 105 Q135 190 45 180 Q-30 225 -115 180 Q-175 175 -205 120Z" fill="#8a5b28" stroke="#d6ad4f" stroke-width="10"/><path d="M-108 -45 Q-90 -130 0 -132 Q90 -130 108 -45 L88 105 Q40 160 0 170 Q-40 160 -88 105Z" fill="#d9b45a" stroke="#f0d487" stroke-width="7"/><path d="M-65 20 Q-35 -10 0 20 Q35 -10 65 20" fill="none" stroke="#51351d" stroke-width="12" stroke-linecap="round"/><circle cx="-42" cy="-2" r="8" fill="#143e33"/><circle cx="42" cy="-2" r="8" fill="#143e33"/><path d="M-32 55 Q0 78 32 55" fill="none" stroke="#51351d" stroke-width="8" stroke-linecap="round"/></g><g transform="translate(540 1460)" stroke="#d6ad4f" stroke-width="9" fill="#fff7df"><path d="M-250 0 Q-150 -80 -30 -10 L0 15 L30 -10 Q150 -80 250 0 L250 155 Q140 85 30 135 L0 155 L-30 135 Q-140 85 -250 155Z"/><path d="M0 15 V155"/></g><rect x="28" y="28" width="1024" height="1864" rx="55" fill="none" stroke="#d6ad4f" stroke-width="5" opacity=".55"/></svg>