<svg xmlns="http://www.w3.org/2000/svg" width="1280" height="720"><defs><linearGradient id="s" y2="1"><stop stop-color="#80c5d2"/><stop offset=".5" stop-color="#dfe3ad"/><stop offset="1" stop-color="#4f7956"/></linearGradient><linearGradient id="w" y2="1"><stop stop-color="#65aaa3"/><stop offset="1" stop-color="#245953"/></linearGradient></defs><rect width="1280" height="720" fill="url(#s)"/><path d="M0 360L160 190 290 320 430 150 580 330 730 180 900 330 1080 170 1280 340V720H0Z" fill="#648d6d"/><path d="M0 470Q220 370 420 455T840 450T1280 465V720H0Z" fill="#2c5b45"/><path d="M0 500Q220 430 430 510T850 500T1280 510V720H0Z" fill="url(#w)"/><path d="M0 625Q260 560 520 620T1280 615V720H0Z" fill="#163a2f"/><path d="M255 560Q280 390 335 260" fill="none" stroke="#4a3524" stroke-width="45"/><path d="M285 340Q200 260 125 300M310 315Q410 225 500 270" fill="none" stroke="#28543b" stroke-width="50" stroke-linecap="round"/><ellipse cx="900" cy="575" rx="125" ry="42" fill="#183f37" stroke="#d6ad4f" stroke-width="7"/><path d="M780 560Q850 500 925 535T1040 550" fill="none" stroke="#8b6537" stroke-width="30" stroke-linecap="round"/><rect x="14" y="14" width="1252" height="692" rx="28" fill="none" stroke="#d6ad4f" stroke-width="8"/></svg>
